<svg width="380" height="244" viewBox="0 0 380 244" fill="none" xmlns="http://www.w3.org/2000/svg">
  <rect x="114" y="10" width="152" height="224" rx="30" fill="#111827"/>
  <rect x="122" y="18" width="136" height="208" rx="24" fill="#F8FAFC"/>
  <rect x="136" y="36" width="84" height="10" rx="5" fill="#0F172A"/>
  <rect x="136" y="54" width="96" height="6" rx="3" fill="#94A3B8"/>
  <rect x="136" y="82" width="108" height="34" rx="17" fill="#FFFFFF" stroke="#E2E8F0"/>
  <rect x="136" y="126" width="108" height="34" rx="17" fill="#FFFFFF" stroke="#E2E8F0"/>
  <rect x="122" y="18" width="136" height="208" rx="24" fill="#0F172A" fill-opacity="0.14"/>
  <rect x="122" y="126" width="136" height="100" rx="24" fill="#FFFFFF"/>
  <rect x="176" y="138" width="28" height="4" rx="2" fill="#CBD5E1"/>
  <rect x="144" y="154" width="68" height="8" rx="4" fill="#0F172A"/>
  <rect x="144" y="168" width="88" height="6" rx="3" fill="#94A3B8"/>
  <rect x="144" y="186" width="92" height="1.5" rx="0.75" fill="#E2E8F0"/>
  <rect x="144" y="194" width="92" height="1.5" rx="0.75" fill="#E2E8F0"/>
</svg>
