<svg width="380" height="240" viewBox="0 0 380 240" fill="none" xmlns="http://www.w3.org/2000/svg">
  <rect x="114" y="10" width="152" height="220" rx="30" fill="#020617"/>
  <rect x="122" y="18" width="136" height="204" rx="24" fill="#0F172A"/>
  <rect x="136" y="36" width="84" height="10" rx="5" fill="#F8FAFC"/>
  <rect x="136" y="54" width="96" height="6" rx="3" fill="#64748B"/>
  <rect x="136" y="82" width="108" height="34" rx="17" fill="#111827" stroke="#1E293B"/>
  <rect x="136" y="126" width="108" height="34" rx="17" fill="#111827" stroke="#1E293B"/>
  <rect x="122" y="18" width="136" height="204" rx="24" fill="#020617" fill-opacity="0.42"/>
  <rect x="122" y="170" width="136" height="52" rx="24" fill="#111827" stroke="#334155"/>
  <rect x="132" y="180" width="28" height="20" rx="10" fill="#312E81"/>
  <circle cx="146" cy="187" r="4" fill="#A5B4FC"/>
  <rect x="139" y="194" width="14" height="2" rx="1" fill="#A5B4FC"/>
  <circle cx="190" cy="187" r="4" fill="#94A3B8"/>
  <rect x="183" y="194" width="14" height="2" rx="1" fill="#94A3B8"/>
  <circle cx="234" cy="187" r="4" fill="#94A3B8"/>
  <rect x="227" y="194" width="14" height="2" rx="1" fill="#94A3B8"/>
  <circle cx="246" cy="182" r="6" fill="#A5B4FC"/>
  <text x="246" y="184.5" font-size="6" text-anchor="middle" fill="#020617" font-family="Arial, sans-serif">3</text>
</svg>
