<svg width="320" height="180" viewBox="0 0 320 180" fill="none" xmlns="http://www.w3.org/2000/svg">
  <rect x="24" y="24" width="124" height="58" rx="18" stroke="#E2E2E2"/>
  <rect x="172" y="24" width="124" height="58" rx="18" stroke="#E2E2E2"/>
  <rect x="24" y="98" width="124" height="58" rx="18" stroke="#E2E2E2"/>
  <rect x="172" y="98" width="124" height="58" rx="18" stroke="#E2E2E2"/>
  <rect x="40" y="38" width="44" height="6" rx="3" fill="#A3A3A3"/>
  <rect x="40" y="52" width="76" height="9" rx="4.5" fill="#171717"/>
  <rect x="40" y="66" width="58" height="5" rx="2.5" fill="#D4D4D4"/>
  <rect x="188" y="38" width="48" height="6" rx="3" fill="#A3A3A3"/>
  <rect x="188" y="52" width="72" height="9" rx="4.5" fill="#171717"/>
  <rect x="188" y="66" width="52" height="5" rx="2.5" fill="#D4D4D4"/>
  <rect x="40" y="112" width="52" height="6" rx="3" fill="#A3A3A3"/>
  <rect x="40" y="126" width="64" height="9" rx="4.5" fill="#171717"/>
  <rect x="40" y="140" width="66" height="5" rx="2.5" fill="#D4D4D4"/>
  <rect x="188" y="112" width="56" height="6" rx="3" fill="#A3A3A3"/>
  <rect x="188" y="126" width="74" height="9" rx="4.5" fill="#171717"/>
  <rect x="188" y="140" width="60" height="5" rx="2.5" fill="#D4D4D4"/>
</svg>
