<svg width="380" height="164" viewBox="0 0 380 164" fill="none" xmlns="http://www.w3.org/2000/svg">
  <rect x="52" y="18" width="276" height="128" rx="18" fill="#171717" stroke="#404040"/>
  <rect x="76" y="38" width="48" height="8" rx="4" fill="#F5F5F5"/>
  <rect x="156" y="38" width="40" height="8" rx="4" fill="#F5F5F5"/>
  <rect x="236" y="38" width="34" height="8" rx="4" fill="#F5F5F5"/>
  <rect x="76" y="56" width="228" height="1" fill="#404040"/>
  <rect x="76" y="70" width="64" height="8" rx="4" fill="#A3A3A3"/>
  <rect x="156" y="70" width="52" height="8" rx="4" fill="#D4D4D4"/>
  <rect x="236" y="72" width="40" height="8" rx="4" fill="#D4D4D4"/>
  <rect x="76" y="92" width="228" height="1" fill="#404040"/>
  <rect x="76" y="102" width="74" height="8" rx="4" fill="#A3A3A3"/>
  <rect x="156" y="102" width="48" height="8" rx="4" fill="#D4D4D4"/>
  <rect x="236" y="104" width="34" height="8" rx="4" fill="#D4D4D4"/>
  <rect x="76" y="124" width="228" height="1" fill="#404040"/>
  <rect x="76" y="132" width="58" height="8" rx="4" fill="#A3A3A3" fill-opacity="0.9"/>
  <rect x="156" y="132" width="60" height="8" rx="4" fill="#D4D4D4" fill-opacity="0.9"/>
  <rect x="236" y="134" width="44" height="8" rx="4" fill="#D4D4D4"/>
</svg>
