<svg width="380" height="198" viewBox="0 0 380 198" fill="none" xmlns="http://www.w3.org/2000/svg">
  <rect x="92" y="14" width="188" height="38" rx="14" fill="white" stroke="#D4D4D4"/>
  <rect x="112" y="29" width="74" height="8" rx="4" fill="#737373"/>
  <rect x="92" y="60" width="188" height="122" rx="18" fill="white" stroke="#E5E5E5"/>
  <rect x="114" y="74" width="44" height="8" rx="4" fill="#262626"/>
  <g fill="#E5E5E5">
    <rect x="114" y="92" width="16" height="16" rx="4"/>
    <rect x="136" y="92" width="16" height="16" rx="4"/>
    <rect x="158" y="92" width="16" height="16" rx="4"/>
    <rect x="180" y="92" width="16" height="16" rx="4"/>
    <rect x="202" y="92" width="16" height="16" rx="4"/>
    <rect x="224" y="92" width="16" height="16" rx="4"/>
    <rect x="246" y="92" width="16" height="16" rx="4"/>
    <rect x="114" y="114" width="16" height="16" rx="4"/>
    <rect x="136" y="114" width="16" height="16" rx="4"/>
    <rect x="158" y="114" width="16" height="16" rx="4"/>
    <rect x="180" y="114" width="16" height="16" rx="4"/>
    <rect x="202" y="114" width="16" height="16" rx="4"/>
    <rect x="224" y="114" width="16" height="16" rx="4"/>
    <rect x="246" y="114" width="16" height="16" rx="4"/>
    <rect x="114" y="136" width="16" height="16" rx="4"/>
    <rect x="136" y="136" width="16" height="16" rx="4"/>
    <rect x="158" y="136" width="16" height="16" rx="4"/>
    <rect x="202" y="136" width="16" height="16" rx="4"/>
    <rect x="224" y="136" width="16" height="16" rx="4"/>
    <rect x="246" y="136" width="16" height="16" rx="4"/>
    <rect x="114" y="158" width="16" height="16" rx="4"/>
    <rect x="136" y="158" width="16" height="16" rx="4"/>
    <rect x="158" y="158" width="16" height="16" rx="4"/>
    <rect x="180" y="158" width="16" height="16" rx="4"/>
    <rect x="202" y="158" width="16" height="16" rx="4"/>
    <rect x="224" y="158" width="16" height="16" rx="4"/>
    <rect x="246" y="158" width="16" height="16" rx="4"/>
  </g>
  <rect x="180" y="136" width="16" height="16" rx="4" fill="#262626"/>
</svg>
